<?xml version="1.0" encoding="UTF-8"?>
<!-- Generated by Pixelmator Pro 3.6.14 -->
<svg width="645" height="871" viewBox="0 0 645 871" xmlns="http://www.w3.org/2000/svg">
    <path id="Polygon" fill="#dc2b20" fill-rule="evenodd" stroke="none" d="M 326.404449 354.846863 L 268.679352 314.146057 L 199.081772 326.184082 L 158.380997 383.909149 L 170.418991 453.506744 L 228.144073 494.20752 L 297.741669 482.169525 L 338.442444 424.444427 Z"/>
    <path id="Shape" fill="#000000" fill-rule="evenodd" stroke="none" d="M 402.080841 755.714355 C 396.603058 755.914917 392.234314 755.545105 390 754.691772 C 388.075012 753.956543 384.700012 752.414429 382.5 751.264771 C 380.299988 750.115173 376.670837 747.596558 374.435181 745.667908 C 371.814758 743.407227 369.149689 739.556274 366.935181 734.830566 C 363.5 727.5 363.5 727.5 363.5 708.5 C 363.5 698.049988 364.174988 675.775024 365 659 C 365.825012 642.224976 366.5 619.939453 366.5 609.476501 C 366.5 590.453003 366.5 590.453003 363.181793 583.715271 C 361.356781 580.00946 357.531769 574.322266 354.681793 571.077026 C 351.831818 567.831787 344.702911 559.980164 338.839813 553.628967 C 332.976715 547.277771 324.390076 537.675537 319.758392 532.290649 C 315.126709 526.905762 307.971344 518.450012 303.857605 513.5 C 299.743866 508.549988 293.740051 500.931 290.515747 496.568909 C 287.291473 492.206787 284.459656 487.624237 284.222839 486.385406 C 283.851318 484.441833 284.389221 483.98642 288.146149 483.06369 C 290.540771 482.475555 293.605682 481.654083 294.957092 481.23819 C 296.308502 480.822296 299.275787 478.011047 301.551056 474.990997 C 303.826355 471.970947 312.778809 459.375 321.445435 447 C 336.641418 425.301788 337.183411 424.357452 336.654816 420.5 C 336.353363 418.299988 333.800659 403.225006 330.982147 387 C 328.163635 370.774994 325.271332 356.589844 324.55481 355.477539 C 323.838287 354.365112 317.781128 349.752625 311.094452 345.227539 C 300.085938 337.777588 298.486755 337 294.174194 337 C 290.580322 337 288.080292 337.797607 283.986969 340.25 C 280.856506 342.125549 276.322479 346.248901 273.265961 350 C 270.352905 353.575012 261.816284 364.375 254.295685 374 C 246.775085 383.625 236.319443 397.125 231.060928 404 C 225.802414 410.875 219.444748 418.524994 216.93277 421 C 214.420792 423.475006 209.920792 426.832855 206.93277 428.461884 C 202.373413 430.947601 200.374634 431.422852 194.5 431.418152 C 188.309799 431.413177 186.654541 430.965881 180.191757 427.551788 C 174.81398 424.710876 172.06543 422.502014 169.786438 419.189606 C 168.083038 416.713806 165.805862 412.395813 164.726044 409.594086 C 163.646225 406.792328 162.764923 402.25 162.767609 399.5 C 162.770279 396.75 163.449051 392.578735 164.275986 390.23053 C 165.102921 387.882294 167.291611 383.451355 169.13974 380.383942 C 170.987885 377.316559 179.217697 366.412811 187.428207 356.153442 C 195.638718 345.894043 209.031494 328.5 217.189926 317.5 C 225.348358 306.5 234.23642 295.175049 236.941177 292.333374 C 240.291779 288.813232 244.510468 285.870117 250.179459 283.0979 C 256.240479 280.133911 263.116516 277.968994 275.5 275.125549 C 284.850006 272.978638 300.041016 269.121826 309.257813 266.554688 C 318.474579 263.987671 331.299591 260.070801 337.757813 257.850586 C 344.216003 255.630432 353.087097 252.89856 357.471344 251.779785 C 363.594543 250.217285 367.362274 249.865479 373.722229 250.262207 C 380.514923 250.686035 383.371979 251.429504 389.631958 254.402344 C 395.132568 257.014587 399.006927 259.80542 403.513641 264.401733 C 407.230499 268.192444 411.052948 273.393433 412.941467 277.229553 C 414.819427 281.04425 416.722198 287.18396 417.596405 292.249756 C 418.981506 300.276062 418.947266 301.440063 417.055084 310.658936 C 415.944122 316.071533 413.408234 326.349976 411.419769 333.5 C 409.431305 340.650024 405.590332 354.599976 402.884277 364.5 C 400.178223 374.399994 395.921143 390.600006 393.424103 400.5 C 390.927063 410.399994 386.571686 426.825012 383.745514 437 C 378.969025 454.196625 378.60321 456.310211 378.553497 467 C 378.502808 477.893677 378.658173 478.800995 381.5 484.208832 C 383.4328 487.886871 391.258942 497.239502 403.5 510.499969 C 413.950012 521.82019 424.431 533.42627 426.791138 536.291138 C 429.151245 539.156006 433.095642 545.549988 435.556396 550.5 C 438.386505 556.192932 440.662933 562.623352 441.751526 568 C 442.698059 572.674988 443.478699 580.549988 443.486237 585.5 C 443.493805 590.450012 442.905518 608.900024 442.178955 626.5 C 441.452362 644.099976 440.214752 672.224976 439.428711 689 C 438.64267 705.775024 437.397247 722.200012 436.661102 725.5 C 435.924988 728.799988 434.109711 733.877869 432.627197 736.78418 C 431.144653 739.69043 428.211853 743.788147 426.109863 745.890137 C 424.007843 747.992188 419.672089 750.991821 416.474854 752.556091 C 411.736664 754.874268 409.074921 755.458313 402.080841 755.714355 Z M 71 643.548096 C 63.268101 643.85498 58.002377 643.577881 54.929348 642.702393 C 52.415489 641.986206 48.36549 640.230225 45.929348 638.800171 C 43.493206 637.370117 39.75058 634.498291 37.612396 632.418274 C 35.474216 630.338257 32.324219 625.680786 30.612398 622.068237 C 27.888466 616.319824 27.5 614.439087 27.5 607 C 27.5 600.314758 28.012421 597.254517 29.900087 592.666382 C 31.220135 589.457886 34.493568 584.4328 37.174389 581.499573 C 40.896645 577.426819 43.756302 575.457336 49.2743 573.16626 C 53.248436 571.516113 60.099998 569.678955 64.5 569.083496 C 68.900002 568.488159 79.25 567.548157 87.5 566.994629 C 95.75 566.441162 110.375 565.545837 120 565.005127 C 129.625 564.464355 144.925003 563.551941 154 562.977539 C 163.074997 562.403076 176.247559 561.526367 183.272339 561.029175 C 193.629684 560.296143 196.836838 559.687927 200.234131 557.812622 C 202.97879 556.297546 208.684738 550.432983 216.779556 540.80719 C 223.575348 532.726196 236.429413 517.426147 245.344162 506.80719 C 260.175079 489.141083 261.821655 488.253448 265 488 C 268.304169 487.736542 268.70401 487.276581 272.682831 493.723022 C 274.983398 497.450348 280.542358 505.225006 285.036102 511 C 289.529846 516.775024 296.861572 525.757813 301.328796 530.961792 C 306.944092 537.503113 309.563354 541.38562 309.814941 543.540649 C 310.105469 546.029053 309.198303 547.953247 305.317474 553.080566 C 302.643707 556.613098 290.431946 571.202576 278.180237 585.501648 C 265.928528 599.800781 252.457748 615.279724 248.245193 619.899414 C 242.275482 626.446045 239.187531 628.953247 234.245956 631.265686 C 228.021378 634.178467 227.342133 634.266785 196.952728 636.112671 C 179.928467 637.146729 147.212143 639.140015 124.249771 640.542175 C 101.287399 641.944336 77.324997 643.296997 71 643.548096 Z M 529.316895 408.764801 C 524.193115 408.635468 506.1633 408.406616 489.250519 408.256287 C 464.876556 408.039612 457.372925 407.656708 453.064728 406.409668 C 448.144684 404.985535 446.16748 403.389557 432.207703 389.573914 C 416.78598 374.311432 416.78598 374.311432 417.210083 369.405701 C 417.443329 366.707581 420.65741 352.349976 424.352478 337.5 C 428.047516 322.650024 431.411652 309.375 431.828278 308 C 432.343079 306.301025 433.276459 305.523682 434.741302 305.573853 C 435.973022 305.616089 440.240326 308.778198 444.698395 312.952209 C 448.989288 316.969727 457.084351 324.811401 462.687469 330.378357 C 468.290588 335.945251 474.319641 341.512512 476.085358 342.75 C 479.240387 344.961182 479.809845 345 509.098663 345 C 527.334717 345 540.958252 345.435913 544.200806 346.123169 C 547.115356 346.740967 551.299988 348.150879 553.5 349.256287 C 555.700012 350.361694 559.097961 352.523193 561.051025 354.059509 C 563.004089 355.595886 565.77124 359.023499 567.200134 361.676453 C 568.629089 364.329407 570.311096 369.018005 570.937927 372.095581 C 571.760315 376.132904 571.78186 379.01123 571.015381 382.431427 C 570.431091 385.038574 569.060852 388.920563 567.970398 391.058044 C 566.879944 393.195526 564.568481 396.560791 562.833862 398.536407 C 561.099243 400.512024 557.596436 403.184296 555.049805 404.474762 C 552.503174 405.765228 547.767517 407.31134 544.526123 407.910522 C 541.284729 408.509735 534.440552 408.894165 529.316895 408.764801 Z M 410.5 235.551331 C 404.522675 235.904663 400.695282 235.534119 395.36203 234.085754 C 391.436157 233.019592 386.036163 231.02887 383.36203 229.661926 C 380.687927 228.295044 375.954803 225.342407 372.843994 223.100586 C 369.733185 220.858765 365.05545 216.206482 362.449005 212.762268 C 359.84259 209.317993 356.439423 203.799988 354.886444 200.5 C 353.333435 197.200012 351.373688 191.208069 350.531403 187.184631 C 349.689148 183.161194 349.015808 177.536194 349.035126 174.684631 C 349.054443 171.833069 349.67392 166.68634 350.411713 163.247375 C 351.149506 159.808472 353.615723 153.113159 355.892151 148.368896 C 359.119812 141.642273 361.623993 138.164246 367.265564 132.572449 C 372.296722 127.585693 376.96579 124.131409 382.596405 121.230225 C 388.52594 118.175049 393.237762 116.607666 400.201752 115.373718 C 409.035553 113.808472 410.342194 113.80426 418.605347 115.31427 C 424.588135 116.407532 430.282654 118.309937 436 121.125427 C 442.559845 124.355774 446.219604 127.044678 452.033661 132.90564 C 456.470459 137.378174 460.899536 143.042908 462.808197 146.686035 C 464.590698 150.088379 466.938049 156.347839 468.024567 160.596008 C 469.111053 164.844177 470 171.528381 470 175.44989 C 470 179.371338 469.320526 185.261841 468.490051 188.539917 C 467.659607 191.817932 465.165955 198.206177 462.948608 202.735901 C 460.088287 208.579224 457.074707 212.814209 452.575043 217.313843 C 448.442963 221.445923 443.455475 225.100952 438.262421 227.802673 C 433.878632 230.083374 427.638702 232.653442 424.395935 233.513916 C 421.153168 234.37439 414.899994 235.291199 410.5 235.551331 Z"/>
</svg>
